<svg width="40" height="40" viewBox="0 0 40 40" fill="none" xmlns="http://www.w3.org/2000/svg">
    <path
        d="M 14 6 C 12.541 6 11.357 7.181625 11.357 8.640625 C 11.357 10.099625 12.539625 11.3085938 13.997625 11.3085938 C 15.455625 11.3085938 16.640203 10.099625 16.640203 8.640625 C 16.640203 7.182625 15.458578 6 14 6 z M 26.892578 13 C 24.673578 13 23.403922 14.160453 22.794922 15.314453 L 22.730469 15.314453 L 22.730469 13.310547 L 18.357031 13.310547 L 18.357031 28 L 22.913672 28 L 22.913672 20.728516 C 22.913672 18.812516 23.058297 16.960938 25.429297 16.960938 C 27.766297 16.960937 27.800391 19.145609 27.800391 20.849609 L 27.800391 28 L 32.351172 28 L 32.356172 28 L 32.356172 19.931641 C 32.356172 15.983641 31.507328 13 26.892578 13 z M 10.7207031 13.310547 L 10.7207031 28 L 15.28125 28 L 15.28125 13.310547 L 10.7207031 13.310547 z"
        fill='#FECB38' />
    <circle cx="20" cy="20" r="19.5" stroke="#FFFFFF" />
</svg>